<?xml version="1.0" standalone="no"?>
<!DOCTYPE svg PUBLIC "-//W3C//DTD SVG 20010904//EN"
 "http://www.w3.org/TR/2001/REC-SVG-20010904/DTD/svg10.dtd">
<svg version="1.0" xmlns="http://www.w3.org/2000/svg"
 width="672.000000pt" height="672.000000pt" viewBox="0 0 672.000000 672.000000"
 preserveAspectRatio="xMidYMid meet">
<metadata>
Created by potrace 1.11, written by Peter Selinger 2001-2013
</metadata>
<g transform="translate(0.000000,672.000000) scale(0.100000,-0.100000)"
fill="#000000" stroke="none">
<path d="M3010 6707 c-76 -38 -58 -136 50 -282 88 -117 120 -232 124 -435 1
-47 -1 -103 -5 -125 -4 -22 -10 -60 -13 -85 -6 -45 -13 -83 -16 -87 -3 -4 -4
-8 -14 -58 -4 -22 -14 -60 -23 -85 -20 -60 -23 -80 -14 -80 4 0 34 9 67 19 32
10 93 29 134 41 41 12 86 25 100 29 25 7 47 40 56 84 6 29 6 165 -1 197 -3 14
-7 39 -9 55 -8 55 -17 100 -28 140 -5 22 -11 45 -13 50 -9 41 -21 83 -47 165
-17 52 -31 102 -33 110 -4 22 -61 164 -96 241 -24 52 -39 71 -70 88 -47 27
-115 35 -149 18z"/>
<path d="M5458 6545 c-2 -2 -41 -6 -88 -9 -109 -9 -186 -20 -337 -50 -119 -24
-338 -94 -478 -154 -66 -28 -213 -106 -270 -142 -16 -11 -37 -23 -45 -27 -8
-4 -19 -11 -25 -15 -5 -5 -35 -26 -65 -47 -180 -128 -382 -330 -436 -439 -36
-71 -20 -91 54 -68 9 3 33 8 52 10 19 3 51 7 70 10 98 14 145 17 269 16 75 0
150 -2 166 -4 17 -2 59 -7 95 -11 36 -5 70 -9 75 -10 90 -9 416 -92 490 -125
11 -5 52 -21 90 -36 39 -15 111 -46 161 -69 113 -53 158 -63 229 -52 31 5 212
106 276 154 84 63 254 231 317 313 23 30 45 60 50 65 43 56 82 115 82 124 0 6
3 11 8 11 4 0 34 48 66 106 72 129 81 182 46 268 -26 64 -95 132 -145 142 -43
9 -87 16 -125 20 -25 3 -65 7 -90 10 -50 6 -487 14 -492 9z"/>
<path d="M2258 5515 c-2 -2 -32 -6 -68 -8 -36 -3 -65 -6 -65 -7 0 -1 -13 -3
-30 -5 -165 -20 -447 -115 -578 -196 -26 -16 -50 -29 -53 -29 -3 0 -40 -23
-82 -52 -200 -136 -359 -290 -511 -494 -152 -206 -321 -531 -361 -697 -6 -23
-13 -50 -15 -59 -3 -10 -7 -27 -10 -39 -2 -11 -6 -28 -9 -37 -3 -9 -7 -34 -11
-56 -3 -21 -7 -41 -9 -45 -2 -3 -7 -30 -10 -59 -3 -30 -8 -57 -10 -60 -2 -4
-7 -34 -10 -67 -4 -33 -9 -78 -12 -100 -2 -22 -7 -62 -10 -90 -8 -68 -13 -588
-6 -599 3 -6 7 -28 8 -50 3 -72 23 -233 39 -318 3 -16 7 -38 9 -50 8 -41 26
-120 50 -208 34 -130 48 -176 58 -187 6 -7 7 -13 3 -13 -4 0 -2 -7 5 -15 7 -8
9 -15 5 -15 -4 0 -2 -6 4 -13 6 -8 12 -22 14 -33 9 -42 117 -276 175 -379 59
-103 146 -235 154 -235 4 0 8 -6 8 -12 0 -14 15 -33 126 -167 102 -122 216
-235 334 -331 30 -25 57 -48 60 -51 11 -12 186 -137 210 -149 14 -7 27 -16 30
-20 21 -29 408 -228 550 -283 36 -14 79 -31 95 -38 17 -7 32 -13 35 -14 3 -1
12 -5 20 -8 33 -14 329 -106 359 -112 9 -2 16 -4 16 -5 0 -1 11 -4 25 -6 14
-3 43 -9 65 -15 22 -6 47 -13 55 -15 307 -69 391 -80 490 -59 13 2 42 7 65 10
22 3 54 8 70 12 17 3 37 7 45 8 8 1 40 7 70 13 30 6 67 13 81 16 126 21 496
136 664 206 55 24 115 48 133 54 17 6 32 14 32 18 0 5 6 8 13 8 7 0 28 8 47
18 175 92 235 126 238 133 2 5 8 9 14 9 9 0 181 108 218 137 91 70 239 190
271 220 103 95 252 252 297 312 15 20 29 38 32 41 9 8 114 153 135 185 97 148
244 431 282 544 8 25 20 57 26 71 6 14 11 28 12 33 2 4 3 8 5 10 1 1 3 9 5 17
2 8 16 53 30 100 15 47 28 92 30 100 1 8 8 34 15 58 6 24 13 55 16 70 2 15 10
61 18 102 18 96 28 173 30 232 0 27 4 48 7 48 8 0 3 456 -5 525 -7 54 -14 105
-21 146 -3 14 -7 41 -9 60 -12 90 -50 249 -83 349 -8 25 -16 52 -18 60 -6 32
-79 219 -118 305 -92 200 -171 311 -348 485 -70 69 -137 133 -150 142 -13 10
-42 32 -64 49 -53 41 -185 128 -260 171 -59 33 -231 118 -240 118 -3 0 -25 9
-49 21 -25 11 -51 22 -58 23 -7 2 -20 6 -28 9 -37 14 -108 36 -135 43 -16 4
-34 9 -40 10 -23 7 -183 43 -215 48 -134 22 -435 29 -555 13 -33 -5 -76 -10
-95 -12 -19 -3 -46 -7 -60 -10 -14 -3 -36 -7 -50 -10 -162 -31 -420 -131 -610
-236 -74 -42 -258 -173 -330 -235 -136 -119 -271 -272 -364 -417 -45 -68 -145
-259 -152 -287 0 -3 -6 -18 -12 -33 -7 -16 -12 -34 -12 -41 0 -6 -4 -16 -8
-21 -9 -11 -30 -70 -38 -107 -9 -39 -12 -53 -14 -53 -1 0 -3 -8 -5 -19 -2 -10
-8 -39 -14 -65 -15 -64 -21 -99 -27 -151 -3 -25 -7 -51 -9 -58 -22 -63 -22
-529 0 -640 2 -11 6 -47 10 -79 8 -72 16 -126 20 -134 2 -3 7 -28 11 -55 3
-27 10 -59 15 -71 5 -13 7 -23 4 -23 -2 0 2 -21 10 -47 8 -27 16 -59 19 -73 7
-37 53 -191 81 -272 29 -84 30 -90 9 -133 -29 -63 -129 -90 -187 -51 -26 18
-38 39 -65 116 -35 100 -41 119 -89 295 -28 102 -35 128 -48 195 -3 14 -8 36
-11 50 -10 44 -14 64 -20 100 -2 19 -8 49 -11 65 -3 17 -7 46 -9 65 -1 19 -5
45 -8 57 -23 103 -24 608 -1 676 2 7 6 35 9 62 3 28 7 57 10 65 3 8 8 31 11
50 3 19 10 53 15 75 6 22 13 48 15 58 2 10 7 27 10 37 3 10 8 27 10 37 19 90
124 325 209 468 99 168 162 248 316 405 117 118 178 172 275 244 22 16 50 39
62 51 66 64 53 194 -24 251 -32 23 -49 30 -108 39 -42 7 -381 15 -387 10z"/>
</g>
</svg>
